<?xml version="1.0" encoding="utf-8"?>
<!-- Svg Vector Icons : http://www.onlinewebfonts.com/icon -->
<!DOCTYPE svg PUBLIC "-//W3C//DTD SVG 1.1//EN" "http://www.w3.org/Graphics/SVG/1.1/DTD/svg11.dtd">
<svg version="1.1" xmlns="http://www.w3.org/2000/svg" xmlns:xlink="http://www.w3.org/1999/xlink" x="0px" y="0px" viewBox="0 0 256 256" enable-background="new 0 0 256 256" xml:space="preserve">
<metadata> Svg Vector Icons : http://www.onlinewebfonts.com/icon </metadata>
<g><g><path fill="#000000" d="M223.6,60.6h-73.1c-37.7,0-33.3-28.1-71.9-28.1H32.5C16,32.5,10,44.3,10,60.6v134.9c0,16.5,6,28.1,22.5,28.1h191.1c16.5,0,22.5-11.6,22.5-28.1V85C246,71.6,234.4,60.2,223.6,60.6z M223.6,184.2c0,12.8-3.9,16.9-16.9,16.9H49.3c-13,0-16.9-4.1-16.9-16.9V71c0-12.6,4.7-16.1,17.7-16.1h25c34.5,0,34.1,28.1,69.7,28.1h61.8c8.6-0.3,16.9,6.6,16.9,16.9L223.6,184.2L223.6,184.2z"/></g></g>
</svg>